<?xml version="1.0" encoding="UTF-8"?>
<mxfile host="app.diagrams.net" modified="2024-06-16T12:00:00.000Z" agent="Mozilla/5.0" version="21.6.6" etag="your-etag" type="device">
  <diagram name="Page-1" id="main-interface">
    <mxGraphModel dx="1422" dy="762" grid="1" gridSize="10" guides="1" tooltips="1" connect="1" arrows="1" fold="1" page="1" pageScale="1" pageWidth="827" pageHeight="1169" math="0" shadow="0">
      <root>
        <mxCell id="0" />
        <mxCell id="1" parent="0" />
        
        <!-- Main Window -->
        <mxCell id="2" value="Main Window" style="swimlane;fontStyle=1;align=center;verticalAlign=top;childLayout=stackLayout;horizontal=1;startSize=30;horizontalStack=0;resizeParent=1;resizeParentMax=0;resizeLast=0;collapsible=1;marginBottom=0;fillColor=#f5f5f5;strokeColor=#666666;fontColor=#333333;" vertex="1" parent="1">
          <mxGeometry x="40" y="40" width="720" height="600" as="geometry" />
        </mxCell>

        <!-- Top Panel -->
        <mxCell id="3" value="Top Panel" style="swimlane;fontStyle=1;align=center;verticalAlign=top;childLayout=stackLayout;horizontal=1;startSize=30;horizontalStack=0;resizeParent=1;resizeParentMax=0;resizeLast=0;collapsible=1;marginBottom=0;fillColor=#dae8fc;strokeColor=#6c8ebf;" vertex="1" parent="2">
          <mxGeometry x="10" y="10" width="700" height="60" as="geometry" />
        </mxCell>

        <!-- User Info and Language Selector -->
        <mxCell id="4" value="User: [username]&#xa;Language: [selector]" style="text;strokeColor=none;fillColor=none;align=left;verticalAlign=middle;spacingLeft=4;spacingRight=4;overflow=hidden;points=[[0,0.5],[1,0.5]];portConstraint=eastwest;rotatable=0;" vertex="1" parent="3">
          <mxGeometry y="30" width="200" height="30" as="geometry" />
        </mxCell>

        <!-- Logout Button -->
        <mxCell id="5" value="Logout" style="rounded=1;whiteSpace=wrap;html=1;fillColor=#dae8fc;strokeColor=#6c8ebf;" vertex="1" parent="3">
          <mxGeometry x="620" y="30" width="80" height="30" as="geometry" />
        </mxCell>

        <!-- Visualization Panel -->
        <mxCell id="6" value="Visualization Panel&#xa;(Shows LabWork objects as circles)" style="swimlane;fontStyle=1;align=center;verticalAlign=top;childLayout=stackLayout;horizontal=1;startSize=200;horizontalStack=0;resizeParent=1;resizeParentMax=0;resizeLast=0;collapsible=1;marginBottom=0;fillColor=#d5e8d4;strokeColor=#82b366;" vertex="1" parent="2">
          <mxGeometry x="10" y="80" width="700" height="200" as="geometry" />
        </mxCell>

        <!-- Table Panel -->
        <mxCell id="7" value="Table Panel" style="swimlane;fontStyle=1;align=center;verticalAlign=top;childLayout=stackLayout;horizontal=1;startSize=200;horizontalStack=0;resizeParent=1;resizeParentMax=0;resizeLast=0;collapsible=1;marginBottom=0;fillColor=#fff2cc;strokeColor=#d6b656;" vertex="1" parent="2">
          <mxGeometry x="10" y="290" width="700" height="200" as="geometry" />
        </mxCell>

        <!-- Filter Panel -->
        <mxCell id="8" value="Filter Panel" style="swimlane;fontStyle=1;align=center;verticalAlign=top;childLayout=stackLayout;horizontal=1;startSize=30;horizontalStack=0;resizeParent=1;resizeParentMax=0;resizeLast=0;collapsible=1;marginBottom=0;fillColor=#ffe6cc;strokeColor=#d79b00;" vertex="1" parent="7">
          <mxGeometry y="30" width="700" height="30" as="geometry" />
        </mxCell>

        <!-- Command Buttons -->
        <mxCell id="9" value="Command Buttons" style="swimlane;fontStyle=1;align=center;verticalAlign=top;childLayout=stackLayout;horizontal=1;startSize=30;horizontalStack=0;resizeParent=1;resizeParentMax=0;resizeLast=0;collapsible=1;marginBottom=0;fillColor=#f8cecc;strokeColor=#b85450;" vertex="1" parent="2">
          <mxGeometry x="10" y="500" width="700" height="60" as="geometry" />
        </mxCell>

        <!-- Button List -->
        <mxCell id="10" value="Add | Update | Remove | Clear | Save | Script | Info" style="text;strokeColor=none;fillColor=none;align=center;verticalAlign=middle;spacingLeft=4;spacingRight=4;overflow=hidden;points=[[0,0.5],[1,0.5]];portConstraint=eastwest;rotatable=0;" vertex="1" parent="9">
          <mxGeometry y="30" width="700" height="30" as="geometry" />
        </mxCell>

      </root>
    </mxGraphModel>
  </diagram>
</mxfile> 